<svg width="15" height="15" viewBox="0 0 15 15" fill="none" xmlns="http://www.w3.org/2000/svg">
<path d="M8.64379 11.875C8.55042 11.8753 8.45816 11.8547 8.3738 11.8147C8.28944 11.7747 8.21512 11.7163 8.15629 11.6437L5.13754 7.89374C5.04562 7.78191 4.99536 7.64163 4.99536 7.49686C4.99536 7.3521 5.04562 7.21182 5.13754 7.09999L8.26254 3.34999C8.36863 3.22235 8.52107 3.14209 8.68634 3.12685C8.85161 3.11161 9.01616 3.16265 9.14379 3.26874C9.27143 3.37483 9.35169 3.52727 9.36693 3.69254C9.38217 3.8578 9.33113 4.02235 9.22504 4.14999L6.43129 7.49999L9.13129 10.85C9.20772 10.9417 9.25627 11.0534 9.27119 11.1719C9.28612 11.2904 9.26679 11.4106 9.21551 11.5185C9.16422 11.6263 9.08312 11.7172 8.9818 11.7804C8.88048 11.8435 8.76319 11.8764 8.64379 11.875Z" fill="black"/>
</svg>
