<svg width="15" height="15" viewBox="0 0 15 15" fill="none" xmlns="http://www.w3.org/2000/svg">
<path d="M6.25012 11.875C6.10409 11.8753 5.96257 11.8244 5.85012 11.7312C5.78684 11.6788 5.73452 11.6143 5.69618 11.5416C5.65783 11.4689 5.63421 11.3893 5.62666 11.3075C5.61912 11.2256 5.62779 11.1431 5.65219 11.0646C5.6766 10.9861 5.71625 10.9131 5.76887 10.85L8.56887 7.49999L5.86887 4.14374C5.81696 4.07981 5.77819 4.00625 5.75479 3.92729C5.7314 3.84833 5.72384 3.76552 5.73255 3.68363C5.74126 3.60174 5.76607 3.52237 5.80556 3.4501C5.84504 3.37783 5.89842 3.31407 5.96262 3.26249C6.02729 3.2056 6.10302 3.16268 6.18506 3.13644C6.2671 3.11019 6.35367 3.10119 6.43936 3.10999C6.52504 3.1188 6.60798 3.14521 6.68297 3.18759C6.75796 3.22997 6.82338 3.28739 6.87512 3.35624L9.89387 7.10624C9.9858 7.21808 10.0361 7.35835 10.0361 7.50312C10.0361 7.64788 9.9858 7.78816 9.89387 7.89999L6.76887 11.65C6.70618 11.7256 6.62653 11.7854 6.5364 11.8245C6.44627 11.8636 6.34819 11.8809 6.25012 11.875Z" fill="black"/>
</svg>
