<svg width="15" height="15" viewBox="0 0 15 15" fill="none" xmlns="http://www.w3.org/2000/svg">
<path d="M8.38121 7.49999L11.0687 4.81874C11.1864 4.70105 11.2525 4.54143 11.2525 4.37499C11.2525 4.20856 11.1864 4.04893 11.0687 3.93124C10.951 3.81355 10.7914 3.74744 10.625 3.74744C10.4585 3.74744 10.2989 3.81355 10.1812 3.93124L7.49996 6.61874L4.81871 3.93124C4.70102 3.81355 4.5414 3.74744 4.37496 3.74744C4.20852 3.74744 4.0489 3.81355 3.93121 3.93124C3.81352 4.04893 3.7474 4.20856 3.7474 4.37499C3.7474 4.54143 3.81352 4.70105 3.93121 4.81874L6.61871 7.49999L3.93121 10.1812C3.87263 10.2393 3.82614 10.3085 3.7944 10.3846C3.76267 10.4608 3.74634 10.5425 3.74634 10.625C3.74634 10.7075 3.76267 10.7892 3.7944 10.8654C3.82614 10.9415 3.87263 11.0106 3.93121 11.0687C3.98931 11.1273 4.05844 11.1738 4.1346 11.2056C4.21076 11.2373 4.29245 11.2536 4.37496 11.2536C4.45747 11.2536 4.53916 11.2373 4.61532 11.2056C4.69148 11.1738 4.76061 11.1273 4.81871 11.0687L7.49996 8.38124L10.1812 11.0687C10.2393 11.1273 10.3084 11.1738 10.3846 11.2056C10.4608 11.2373 10.5425 11.2536 10.625 11.2536C10.7075 11.2536 10.7892 11.2373 10.8653 11.2056C10.9415 11.1738 11.0106 11.1273 11.0687 11.0687C11.1273 11.0106 11.1738 10.9415 11.2055 10.8654C11.2372 10.7892 11.2536 10.7075 11.2536 10.625C11.2536 10.5425 11.2372 10.4608 11.2055 10.3846C11.1738 10.3085 11.1273 10.2393 11.0687 10.1812L8.38121 7.49999Z" fill="black"/>
</svg>
