<svg width="15" height="15" viewBox="0 0 15 15" fill="none" xmlns="http://www.w3.org/2000/svg">
<path d="M2.46875 7.375H12.5313C12.5821 7.375 12.625 7.41656 12.625 7.46994V7.53256C12.625 7.58594 12.5821 7.6275 12.5313 7.6275H2.46875C2.41791 7.6275 2.375 7.58594 2.375 7.53256V7.46994C2.375 7.41656 2.41791 7.375 2.46875 7.375Z" stroke="black"/>
<path d="M2.46875 10.5H12.5313C12.5821 10.5 12.625 10.5416 12.625 10.5949V10.6576C12.625 10.7109 12.5821 10.7525 12.5313 10.7525H2.46875C2.41792 10.7525 2.375 10.7109 2.375 10.6576V10.5949C2.375 10.5416 2.41792 10.5 2.46875 10.5Z" stroke="black"/>
<path d="M12.5313 3.75H2.46875C2.14083 3.75 1.875 4.01636 1.875 4.34494V4.40756C1.875 4.73614 2.14083 5.0025 2.46875 5.0025H12.5313C12.8592 5.0025 13.125 4.73614 13.125 4.40756V4.34494C13.125 4.01636 12.8592 3.75 12.5313 3.75Z" fill="black"/>
</svg>
