<svg width="15" height="15" viewBox="0 0 15 15" fill="none" xmlns="http://www.w3.org/2000/svg">
<path d="M13.5375 2.65627C13.4131 2.54702 13.2505 2.49158 13.0853 2.50212C12.92 2.51267 12.7657 2.58834 12.6563 2.71252L11.4875 4.05627L11.0938 3.61252C10.9835 3.4882 10.8284 3.41276 10.6626 3.40279C10.4967 3.39283 10.3337 3.44916 10.2094 3.55939C10.0851 3.66962 10.0096 3.82473 9.99966 3.99058C9.9897 4.15643 10.046 4.31945 10.1563 4.44377L11.025 5.41877C11.0841 5.4843 11.1565 5.53656 11.2373 5.57211C11.3181 5.60766 11.4055 5.62569 11.4938 5.62502C11.5814 5.62402 11.6679 5.60459 11.7476 5.56798C11.8273 5.53137 11.8984 5.4784 11.9563 5.41252L13.5875 3.53752C13.6975 3.41393 13.754 3.25175 13.7447 3.08656C13.7353 2.92136 13.6608 2.76662 13.5375 2.65627Z" fill="black"/>
<path d="M6.25 6.875C6.74445 6.875 7.2278 6.72838 7.63893 6.45368C8.05005 6.17897 8.37048 5.78853 8.5597 5.33171C8.74892 4.87489 8.79843 4.37223 8.70196 3.88728C8.6055 3.40232 8.3674 2.95687 8.01777 2.60723C7.66814 2.2576 7.22268 2.0195 6.73773 1.92304C6.25277 1.82657 5.75011 1.87608 5.29329 2.0653C4.83648 2.25452 4.44603 2.57495 4.17133 2.98608C3.89662 3.3972 3.75 3.88055 3.75 4.375C3.75 5.03804 4.01339 5.67393 4.48223 6.14277C4.95107 6.61161 5.58696 6.875 6.25 6.875Z" fill="black"/>
<path d="M10 13.125C10.1658 13.125 10.3247 13.0592 10.4419 12.9419C10.5592 12.8247 10.625 12.6658 10.625 12.5C10.625 11.3397 10.1641 10.2269 9.34359 9.40641C8.52312 8.58594 7.41032 8.125 6.25 8.125C5.08968 8.125 3.97688 8.58594 3.15641 9.40641C2.33594 10.2269 1.875 11.3397 1.875 12.5C1.875 12.6658 1.94085 12.8247 2.05806 12.9419C2.17527 13.0592 2.33424 13.125 2.5 13.125" fill="black"/>
</svg>
