<svg width="15" height="15" viewBox="0 0 15 15" fill="none" xmlns="http://www.w3.org/2000/svg">
<path d="M11.4316 7.24451H7.68164V3.49451C7.68164 3.32875 7.61579 3.16978 7.49858 3.05257C7.38137 2.93535 7.2224 2.86951 7.05664 2.86951C6.89088 2.86951 6.73191 2.93535 6.6147 3.05257C6.49749 3.16978 6.43164 3.32875 6.43164 3.49451V7.24451H2.68164C2.51588 7.24451 2.35691 7.31036 2.2397 7.42757C2.12249 7.54478 2.05664 7.70375 2.05664 7.86951C2.05664 8.03527 2.12249 8.19424 2.2397 8.31145C2.35691 8.42866 2.51588 8.49451 2.68164 8.49451H6.43164V12.2445C6.43164 12.4103 6.49749 12.5692 6.6147 12.6864C6.73191 12.8037 6.89088 12.8695 7.05664 12.8695C7.2224 12.8695 7.38137 12.8037 7.49858 12.6864C7.61579 12.5692 7.68164 12.4103 7.68164 12.2445V8.49451H11.4316C11.5974 8.49451 11.7564 8.42866 11.8736 8.31145C11.9908 8.19424 12.0566 8.03527 12.0566 7.86951C12.0566 7.70375 11.9908 7.54478 11.8736 7.42757C11.7564 7.31036 11.5974 7.24451 11.4316 7.24451Z" fill="black"/>
</svg>
