<svg width="15" height="15" viewBox="0 0 15 15" fill="none" xmlns="http://www.w3.org/2000/svg">
<path d="M13.175 4.375C13.067 4.18789 12.9124 4.03196 12.7261 3.92242C12.5399 3.81288 12.3285 3.75348 12.1125 3.75H4.1125L3.75 2.3375C3.71337 2.20115 3.63166 2.08122 3.51817 1.99723C3.40468 1.91325 3.2661 1.87017 3.125 1.875H1.875C1.70924 1.875 1.55027 1.94085 1.43306 2.05806C1.31585 2.17527 1.25 2.33424 1.25 2.5C1.25 2.66576 1.31585 2.82473 1.43306 2.94194C1.55027 3.05915 1.70924 3.125 1.875 3.125H2.65L4.375 9.5375C4.41163 9.67385 4.49334 9.79378 4.60683 9.87777C4.72032 9.96175 4.8589 10.0048 5 10H10.625C10.7404 9.99965 10.8535 9.96735 10.9517 9.90667C11.0498 9.846 11.1293 9.75932 11.1812 9.65625L13.2312 5.55625C13.3201 5.37001 13.3615 5.16467 13.3517 4.95855C13.3418 4.75244 13.2811 4.55195 13.175 4.375ZM10.2375 8.75H5.475L4.45625 5H12.1125L10.2375 8.75Z" fill="black"/>
<path d="M4.6875 13.125C5.20527 13.125 5.625 12.7053 5.625 12.1875C5.625 11.6697 5.20527 11.25 4.6875 11.25C4.16973 11.25 3.75 11.6697 3.75 12.1875C3.75 12.7053 4.16973 13.125 4.6875 13.125Z" fill="black"/>
<path d="M10.9375 13.125C11.4553 13.125 11.875 12.7053 11.875 12.1875C11.875 11.6697 11.4553 11.25 10.9375 11.25C10.4197 11.25 10 11.6697 10 12.1875C10 12.7053 10.4197 13.125 10.9375 13.125Z" fill="black"/>
</svg>
